<?xml version="1.0" encoding="UTF-8" standalone="no"?>
<!DOCTYPE svg PUBLIC "-//W3C//DTD SVG 1.1//EN" "http://www.w3.org/Graphics/SVG/1.1/DTD/svg11.dtd">
<svg width="100%" height="100%" viewBox="0 0 1920 1080" version="1.1" xmlns="http://www.w3.org/2000/svg" xmlns:xlink="http://www.w3.org/1999/xlink" xml:space="preserve" xmlns:serif="http://www.serif.com/" style="fill-rule:evenodd;clip-rule:evenodd;stroke-linecap:round;stroke-linejoin:round;stroke-miterlimit:1.5;">
    <g transform="matrix(1,0,0,1,-238.5,42.0523)">
        <path d="M1801,800.367L1801,932L596,932L596,786.972M596,416L833,416L833,540L1042,540L1042,416L1338,416L1338,540L1573,540L1573,416L1801,416L1801,797L1430,797L1331.11,698.105L1241.09,788.116L1149.24,696.267L1048.78,796.733L955.291,703.244L874.174,784.36L596,784.36L596,786.972L596,246L862,246L862,68L960,135L1041,85L1065,151L1172,85L1218,151L1289,68L1353,151L1411,85L1458,151L1545.11,63.895L1545.11,246L1801,246L1801,800.367" style="fill:none;stroke:rgb(163,197,241);stroke-width:44.96px;"/>
    </g>
</svg>
