<svg xmlns="http://www.w3.org/2000/svg"  viewBox="0 0 48 48" width="48px" height="48px" baseProfile="basic"><path fill="#35af69" d="M37,14.064C37,12.924,36.076,12,34.935,12h-4.653l-8.52,8.52 c-0.682,0.683-0.682,1.792,0,2.474l4.243,4.243c0.684,0.684,1.791,0.684,2.475,0L37,18.719V14.064z" opacity=".4"/><path fill="#35af69" d="M37,14.064C37,12.924,36.076,12,34.935,12h-5.713l-7.99,7.99 c-0.974,0.975-0.974,2.56,0.001,3.535l4.243,4.243c0.977,0.977,2.559,0.978,3.536,0L37,19.78V14.064z" opacity=".3"/><path fill="#35af69" d="M37,14.064C37,12.924,36.076,12,34.935,12h-6.774l-7.46,7.46 c-1.266,1.267-1.266,3.328,0.001,4.595l4.242,4.242c1.27,1.271,3.326,1.272,4.597,0.001L37,20.84V14.064z" opacity=".2"/><path fill="#35af69" d="M37,14.064C37,12.924,36.076,12,34.935,12h-7.835l-6.93,6.93 c-1.557,1.559-1.557,4.096,0.001,5.655l4.242,4.242c1.563,1.564,4.094,1.566,5.658,0.001L37,21.901V14.064z" opacity=".1"/><linearGradient id="8vxJocFT7m6BZRa8VL7OBa" x1="25.898" x2="42.067" y1="21.102" y2="4.933" gradientTransform="translate(1.414 .586)" gradientUnits="userSpaceOnUse"><stop offset=".01" stop-color="#78e837"/><stop offset=".246" stop-color="#5bdd46"/><stop offset="1" stop-color="#00bc73"/></linearGradient><path fill="url(#8vxJocFT7m6BZRa8VL7OBa)" d="M43.433,4.586H31.784c-0.875,0-1.312,1.057-0.694,1.676l2.996,2.996L22.293,21.05	c-0.391,0.391-0.391,1.024,0,1.414l4.243,4.243c0.391,0.391,1.024,0.391,1.414,0l11.793-11.792l2.995,2.995	c0.618,0.618,1.676,0.18,1.676-0.694V5.567C44.414,5.025,43.975,4.586,43.433,4.586z"/><path fill="#35af69" d="M22.293,21.05c-0.391,0.391-0.391,1.024,0,1.414l4.243,4.243 c0.391,0.391,1.024,0.391,1.414,0l9.449-9.449v-3.207c0-1.354-1.098-2.452-2.452-2.452h-3.205L22.293,21.05z" opacity=".4"/><path fill="#35af69" d="M22.293,21.05c-0.391,0.391-0.391,1.024,0,1.414l4.243,4.243 c0.391,0.391,1.024,0.391,1.414,0l9.849-9.849v-2.82c0-1.568-1.271-2.839-2.839-2.839h-2.818L22.293,21.05z" opacity=".3"/><path fill="#35af69" d="M22.293,21.05c-0.391,0.391-0.391,1.024,0,1.414l4.243,4.243 c0.391,0.391,1.024,0.391,1.414,0L38.2,16.458v-2.433c0-1.782-1.444-3.226-3.226-3.226h-2.431L22.293,21.05z" opacity=".2"/><path fill="#35af69" d="M22.293,21.05c-0.391,0.391-0.391,1.024,0,1.414l4.243,4.243 c0.391,0.391,1.024,0.391,1.414,0L38.6,16.058v-2.045c0-1.995-1.618-3.613-3.613-3.613h-2.044L22.293,21.05z" opacity=".1"/><path fill="#35af69" d="M22.293,21.05c-0.391,0.391-0.391,1.024,0,1.414l4.243,4.243 c0.391,0.391,1.024,0.391,1.414,0L39,15.658V14c0-2.209-1.791-4-4-4h-1.657L22.293,21.05z" opacity=".05"/><linearGradient id="8vxJocFT7m6BZRa8VL7OBb" x1="5.605" x2="36.395" y1="43.395" y2="12.605" gradientUnits="userSpaceOnUse"><stop offset="0" stop-color="#01fff7" stop-opacity=".3"/><stop offset="1" stop-color="#01fff7" stop-opacity=".4"/></linearGradient><path fill="url(#8vxJocFT7m6BZRa8VL7OBb)" d="M7.065,12h27.871	C36.076,12,37,12.924,37,14.065v27.871C37,43.076,36.076,44,34.935,44H7.065C5.924,44,5,43.076,5,41.935V14.065	C5,12.924,5.924,12,7.065,12z"/><linearGradient id="8vxJocFT7m6BZRa8VL7OBc" x1="27.004" x2="-3.787" y1="21.996" y2="52.787" gradientUnits="userSpaceOnUse"><stop offset="0" stop-color="#fff" stop-opacity=".2"/><stop offset="1" stop-color="#278eff" stop-opacity=".2"/></linearGradient><path fill="url(#8vxJocFT7m6BZRa8VL7OBc)" d="M34.935,12.5	c0.863,0,1.565,0.702,1.565,1.565v27.871c0,0.863-0.702,1.565-1.565,1.565H7.065c-0.863,0-1.565-0.702-1.565-1.565V14.065	c0-0.863,0.702-1.565,1.565-1.565H34.935 M34.935,12H7.065C5.924,12,5,12.924,5,14.065v27.871C5,43.076,5.924,44,7.065,44h27.871	C36.076,44,37,43.076,37,41.935V14.065C37,12.924,36.076,12,34.935,12L34.935,12z"/></svg>